<svg width="15" height="16" viewBox="0 0 15 16" fill="none" xmlns="http://www.w3.org/2000/svg">
<path d="M7.14899 15.2699L0.339645 3.85843C0.161264 3.55934 0.0476132 3.19545 0.012012 2.80939C-0.0235893 2.42333 0.0203325 2.0311 0.138631 1.67866C0.256929 1.32621 0.444705 1.02815 0.679953 0.819399C0.915201 0.610648 1.18818 0.499854 1.4669 0.5H13.5349C13.8135 0.50034 14.0862 0.611487 14.3212 0.820429C14.5562 1.02937 14.7437 1.32746 14.8618 1.67981C14.9798 2.03217 15.0236 2.4242 14.9879 2.81003C14.9523 3.19585 14.8386 3.55951 14.6604 3.85843L7.85284 15.2699C7.80984 15.3419 7.75602 15.3999 7.69521 15.4396C7.63439 15.4794 7.56807 15.5 7.50092 15.5C7.43377 15.5 7.36744 15.4794 7.30663 15.4396C7.24581 15.3999 7.192 15.3419 7.14899 15.2699Z" fill="#8987A1"/>
</svg>
