<svg width="20" height="22" viewBox="0 0 20 22" fill="none" xmlns="http://www.w3.org/2000/svg">
<path d="M7.41846 17.5292C2.83385 18.9046 2.83385 15.2369 1 14.7784M13.8369 20.28V16.7315C13.8713 16.2942 13.8122 15.8547 13.6636 15.4421C13.515 15.0294 13.2803 14.6532 12.975 14.3383C15.8542 14.0174 18.88 12.9262 18.88 7.91983C18.8798 6.63965 18.3873 5.40856 17.5046 4.48137C17.9226 3.36135 17.893 2.12336 17.4221 1.02457C17.4221 1.02457 16.3401 0.703644 13.8369 2.38161C11.7353 1.81204 9.52004 1.81204 7.41846 2.38161C4.91526 0.703644 3.83329 1.02457 3.83329 1.02457C3.36234 2.12336 3.33278 3.36135 3.75077 4.48137C2.86147 5.41544 2.36853 6.65765 2.37538 7.94734C2.37538 12.9171 5.40123 14.0082 8.28037 14.3658C7.9787 14.6775 7.74604 15.0493 7.59754 15.4569C7.44904 15.8644 7.38803 16.2987 7.41846 16.7315V20.28" stroke="#A9A9A9" stroke-width="2" stroke-linecap="round" stroke-linejoin="round"/>
</svg>
