<svg width="18" height="16" viewBox="0 0 18 16" fill="none" xmlns="http://www.w3.org/2000/svg">
<path d="M0.873047 5.60938H4.57571V15.2708H0.873047V5.60938Z" fill="#A9A9A9"/>
<path d="M2.68841 4.06807C3.72336 4.06807 4.56236 3.30267 4.56236 2.3585C4.56236 1.41433 3.72336 0.648926 2.68841 0.648926C1.65345 0.648926 0.814453 1.41433 0.814453 2.3585C0.814453 3.30267 1.65345 4.06807 2.68841 4.06807Z" fill="#A9A9A9"/>
<path d="M13.8831 5.39111C13.1248 5.39111 12.4823 5.52919 11.9541 5.80509C11.4265 6.08125 10.9052 6.54047 10.3895 7.18327V5.60941H6.94141V15.2709H10.6441V10.6311C10.6441 9.75157 10.7837 9.14244 11.0628 8.80263C11.3418 8.46308 11.7053 8.29318 12.1543 8.29318C12.5606 8.29318 12.876 8.41916 13.1006 8.67086C13.3252 8.92256 13.437 9.35153 13.437 9.9583V15.2709H17.1581V9.13034C17.1581 7.85658 16.8682 6.915 16.2888 6.30534C15.7102 5.69568 14.9077 5.39111 13.8831 5.39111Z" fill="#A9A9A9"/>
</svg>
